#N canvas 486 25 466 396 10;
#X obj 260 510 cnv 15 115 171 empty empty empty 20 12 0 14 #e0e0e0
#404040 0;
#X obj 5 6 cnv 15 451 380 empty empty empty 20 12 0 14 #e0e0e0 #404040
0;
#X obj 752 494 cnv 15 439 320 empty empty empty 20 12 0 14 #e0e0e0
#404040 0;
#X msg 294 632 \; pd dsp 1;
#X obj 294 603 loadbang;
#X obj 763 630 route 1 2 3 4 5 6 7 8 9, f 69;
#X obj 864 513 r gainRT;
#X obj 763 530 r gainRoom;
#X obj 763 559 pack f f;
#X floatatom 763 608 5 0 0 0 - - -, f 5;
#X msg 763 676 -3.2;
#X floatatom 763 706 5 0 0 0 - - -, f 5;
#X msg 763 654 bang;
#X msg 808 654 bang;
#X msg 808 676 -5.6;
#X msg 854 653 bang;
#X msg 900 653 bang;
#X msg 854 675 -6.5;
#X msg 900 675 -2.4;
#X msg 945 653 bang;
#X msg 991 653 bang;
#X msg 1037 652 bang;
#X msg 1082 652 bang;
#X msg 945 675 -5.8;
#X msg 991 675 -7.5;
#X msg 1037 674 0;
#X msg 1082 674 -4.1;
#X msg 1128 651 bang;
#X msg 1128 673 -6.4;
#X floatatom 763 769 19 0 0 0 - - -, f 19;
#X obj 763 747 dbtorms;
#X obj 763 725 + 100;
#X obj 763 790 s gain;
#X obj 520 100 cnv 15 698 390 empty empty empty 20 12 0 14 #e0e0e0
#404040 0;
#X floatatom 640 195 5 0 0 0 - - -, f 5;
#X floatatom 539 196 5 0 0 0 - - -, f 5;
#X text 539 138 room;
#X text 642 138 RT;
#X floatatom 971 199 5 0 0 0 - - -, f 5;
#X text 970 140 N refelctions;
#X floatatom 872 194 5 0 0 0 - - -, f 5;
#X text 871 135 content;
#X msg 539 291 S;
#X msg 560 312 M;
#X msg 581 337 L;
#X msg 640 290 d;
#X msg 650 320 m;
#X msg 682 336 w;
#X msg 971 296 ref;
#X obj 539 369 l2s;
#X obj 640 361 l2s;
#X obj 971 361 l2s;
#X obj 871 363 l2s;
#X floatatom 1046 326 5 0 0 0 - - -, f 5;
#X obj 539 219 t f f;
#X obj 566 243 s gainRoom;
#X obj 640 219 t f f;
#X obj 667 243 s gainRT;
#X floatatom 20 248 5 0 2 2 Room - -, f 5;
#X msg 42 138 0;
#X msg 10 138 100;
#X floatatom 83 248 5 0 1 2 RT - -, f 5;
#X floatatom 216 248 5 0 2 2 CONTENT - -, f 5;
#X obj 539 170 r lRoom;
#X obj 640 170 r lRT;
#X obj 872 170 r lContent;
#X obj 971 175 r lN;
#X obj 432 494 cnv 15 308 321 empty empty empty 20 12 0 14 #e0e0e0
#404040 0;
#X obj 471 638 readsf~ 2, f 26;
#X obj 471 719 dac~ 1 2, f 10;
#X msg 452 593 start;
#X msg 506 614 stop;
#X obj 452 537 t b b a;
#X obj 506 592 r stop;
#X obj 556 591 print;
#X obj 471 690 *~ 1;
#X obj 532 690 *~ 1;
#X obj 485 662 r gain;
#X text 469 505 Play wav in loop;
#X text 765 506 Gain control;
#X obj 310 139 bng 15 250 50 0 empty empty empty 17 7 0 10 #fcfcfc
#000000 #000000;
#X obj 310 162 s stop;
#X obj 586 732 gate;
#X obj 360 139 tgl 15 0 empty empty empty 17 7 0 10 #fcfcfc #000000
#000000 0 1;
#X text 303 115 stop;
#X text 358 115 loop;
#X obj 360 162 s lLoop;
#X obj 586 689 loadbang;
#X msg 586 710 0;
#X obj 573 667 r lLoop;
#X obj 586 754 bng 15 250 50 0 empty empty empty 17 7 0 10 #fcfcfc
#000000 #000000;
#X obj 586 774 s loop;
#X obj 573 371 r loop;
#X obj 971 271 route 100 101;
#X msg 1008 305 refISM;
#X text 10 116 Number of Reflections;
#X text 19 273 room:;
#X obj 539 268 route 0 1 2;
#X obj 640 267 route 0 1 2;
#X obj 871 269 route 0 1 2;
#X msg 871 292 speech;
#X msg 892 315 cast;
#X msg 913 337 noise;
#X text 19 291 0=small;
#X text 19 308 1=medium;
#X text 19 325 2=large;
#X text 80 273 RT;
#X text 80 291 0=dry;
#X text 216 273 Content;
#X text 216 291 0=speech;
#X text 216 325 2=noise;
#X text 11 11 Klick on a 'Number of Reflections' to listen;
#X text 273 523 enable audio, f 16;
#X floatatom 142 248 5 0 2 2 POSITION - -, f 5;
#X text 142 273 Position;
#X text 142 291 0=center;
#X text 142 308 1=wall;
#X text 142 325 2=corner;
#X text 741 135 position;
#X floatatom 742 193 5 0 0 0 - - -, f 5;
#X obj 741 362 l2s;
#X obj 741 268 route 0 1 2;
#X obj 742 169 r lPosition;
#X msg 741 291 pos1;
#X msg 762 314 pos2;
#X msg 783 336 pos3;
#X text 216 308 1=castanets;
#X obj 20 204 t b b b b b f;
#X floatatom 1103 202 5 0 0 0 - - -, f 5;
#X obj 1102 371 l2s;
#X text 1102 143 Threshold;
#X obj 1103 178 r lThresh;
#X obj 1100 280 route 0 1;
#X obj 540 418 pack s s s s s s;
#X msg 1130 310 _lat, f 5;
#X msg 1100 300 _pol;
#N canvas 0 22 450 300 send 0;
#X obj 40 101 s lRoom;
#X obj 108 101 s lRT;
#X obj 239 103 s lContent;
#X obj 385 80 s lN;
#X obj 161 102 s lPosition;
#X obj 310 103 s lThresh;
#X obj 13 26 inlet;
#X obj 63 26 inlet;
#X obj 113 26 inlet;
#X obj 163 26 inlet;
#X obj 213 26 inlet;
#X obj 263 26 inlet;
#X connect 6 0 0 0;
#X connect 7 0 1 0;
#X connect 8 0 4 0;
#X connect 9 0 2 0;
#X connect 10 0 5 0;
#X connect 11 0 3 0;
#X restore 300 267 pd send UDP;
#X msg 79 138 3;
#X msg 110 138 6;
#X obj 829 531 t b f;
#X obj 763 583 expr ($f1)*3+$f2+1;
#X text 612 106 Receive UDP and concat wav file name;
#X msg 900 770 1;
#X text 860 735 This bypasses the gain control (already done in newest
reduceAndRender script);
#X msg 141 138 -1;
#X msg 470 560 open Auralizations/L-d-pos1_cast_0.wav;
#X msg 540 440 set open Auralizations/\$1-\$2-\$3_\$4_\$5.wav;
#X text 80 308 1=wet;
#X text 10 30 (100=reference \, 101=ISM first order \, -1=all "audible"
reflections), f 68;
#X text 10 63 Select room \, reverberation and content with numbers
below;
#X connect 4 0 3 0;
#X connect 5 0 12 0;
#X connect 5 1 13 0;
#X connect 5 2 15 0;
#X connect 5 3 16 0;
#X connect 5 4 19 0;
#X connect 5 5 20 0;
#X connect 5 6 21 0;
#X connect 5 7 22 0;
#X connect 5 8 27 0;
#X connect 6 0 139 0;
#X connect 7 0 8 0;
#X connect 8 0 140 0;
#X connect 9 0 5 0;
#X connect 10 0 11 0;
#X connect 11 0 31 0;
#X connect 12 0 10 0;
#X connect 13 0 14 0;
#X connect 14 0 11 0;
#X connect 15 0 17 0;
#X connect 16 0 18 0;
#X connect 17 0 11 0;
#X connect 18 0 11 0;
#X connect 19 0 23 0;
#X connect 20 0 24 0;
#X connect 21 0 25 0;
#X connect 22 0 26 0;
#X connect 23 0 11 0;
#X connect 24 0 11 0;
#X connect 25 0 11 0;
#X connect 26 0 11 0;
#X connect 27 0 28 0;
#X connect 28 0 11 0;
#X connect 30 0 29 0;
#X connect 31 0 30 0;
#X connect 34 0 56 0;
#X connect 35 0 54 0;
#X connect 38 0 93 0;
#X connect 40 0 99 0;
#X connect 42 0 49 0;
#X connect 43 0 49 0;
#X connect 44 0 49 0;
#X connect 45 0 50 0;
#X connect 46 0 50 0;
#X connect 47 0 50 0;
#X connect 48 0 51 0;
#X connect 49 0 133 0;
#X connect 50 0 133 1;
#X connect 51 0 133 4;
#X connect 52 0 133 3;
#X connect 53 0 51 0;
#X connect 54 0 97 0;
#X connect 54 1 55 0;
#X connect 56 0 98 0;
#X connect 56 1 57 0;
#X connect 58 0 136 0;
#X connect 59 0 127 0;
#X connect 60 0 127 0;
#X connect 61 0 136 1;
#X connect 62 0 136 3;
#X connect 63 0 35 0;
#X connect 64 0 34 0;
#X connect 65 0 40 0;
#X connect 66 0 38 0;
#X connect 68 0 75 0;
#X connect 68 1 76 0;
#X connect 68 2 82 1;
#X connect 70 0 68 0;
#X connect 71 0 68 0;
#X connect 72 0 70 0;
#X connect 72 1 145 0;
#X connect 72 2 145 0;
#X connect 73 0 71 0;
#X connect 75 0 69 0;
#X connect 76 0 69 1;
#X connect 77 0 75 1;
#X connect 77 0 76 1;
#X connect 80 0 81 0;
#X connect 82 0 90 0;
#X connect 83 0 86 0;
#X connect 87 0 88 0;
#X connect 88 0 82 0;
#X connect 89 0 82 0;
#X connect 90 0 91 0;
#X connect 92 0 133 0;
#X connect 93 0 48 0;
#X connect 93 1 94 0;
#X connect 93 2 53 0;
#X connect 94 0 51 0;
#X connect 97 0 42 0;
#X connect 97 1 43 0;
#X connect 97 2 44 0;
#X connect 98 0 45 0;
#X connect 98 1 47 0;
#X connect 99 0 100 0;
#X connect 99 1 101 0;
#X connect 99 2 102 0;
#X connect 100 0 52 0;
#X connect 101 0 52 0;
#X connect 102 0 52 0;
#X connect 113 0 136 2;
#X connect 119 0 121 0;
#X connect 120 0 133 2;
#X connect 121 0 123 0;
#X connect 121 1 124 0;
#X connect 121 2 125 0;
#X connect 122 0 119 0;
#X connect 123 0 120 0;
#X connect 124 0 120 0;
#X connect 125 0 120 0;
#X connect 127 0 58 0;
#X connect 127 1 61 0;
#X connect 127 2 113 0;
#X connect 127 3 62 0;
#X connect 127 5 136 5;
#X connect 128 0 132 0;
#X connect 129 0 133 5;
#X connect 131 0 128 0;
#X connect 132 0 135 0;
#X connect 132 1 134 0;
#X connect 133 0 146 0;
#X connect 134 0 129 0;
#X connect 135 0 129 0;
#X connect 137 0 127 0;
#X connect 138 0 127 0;
#X connect 139 0 8 0;
#X connect 139 1 8 1;
#X connect 140 0 9 0;
#X connect 142 0 32 0;
#X connect 144 0 127 0;
#X connect 145 0 68 0;
#X connect 145 0 74 0;
#X connect 146 0 72 0;
