#N canvas 565 208 401 432 10;
#X obj 863 94 cnv 15 115 171 empty empty empty 20 12 0 14 -233017 -66577
0;
#X obj 5 6 cnv 15 309 355 empty empty empty 20 12 0 14 -145855 -66577
0;
#X obj 636 404 cnv 15 439 320 empty empty empty 20 12 0 14 -233017
-66577 0;
#X msg 891 208 \; pd dsp 1;
#X obj 891 179 loadbang;
#X obj 647 540 route 1 2 3 4 5 6 7 8 9, f 69;
#X obj 715 439 r gainRT;
#X obj 647 440 r gainRoom;
#X obj 647 469 pack f f;
#X floatatom 647 518 5 0 0 0 - - -, f 5;
#X obj 647 493 expr ($f1-1)*3+$f2;
#X msg 647 586 -3.2;
#X floatatom 647 616 5 0 0 0 - - -, f 5;
#X msg 647 564 bang;
#X msg 692 564 bang;
#X msg 692 586 -5.6;
#X msg 738 563 bang;
#X msg 784 563 bang;
#X msg 738 585 -6.5;
#X msg 784 585 -2.4;
#X msg 829 563 bang;
#X msg 875 563 bang;
#X msg 921 562 bang;
#X msg 966 562 bang;
#X msg 829 585 -5.8;
#X msg 875 585 -7.5;
#X msg 921 584 0;
#X msg 966 584 -4.1;
#X msg 1012 561 bang;
#X msg 1012 583 -6.4;
#X floatatom 647 679 19 0 0 0 - - -, f 19;
#X obj 647 657 dbtorms;
#X obj 647 635 + 100;
#X obj 647 700 s gain;
#X obj 376 6 cnv 15 435 383 empty empty empty 20 12 0 14 -233017 -66577
0;
#X floatatom 496 101 5 0 0 0 - - -, f 5;
#X floatatom 395 102 5 0 0 0 - - -, f 5;
#X text 395 44 room;
#X text 498 44 RT;
#X floatatom 702 100 5 0 0 0 - - -, f 5;
#X text 701 41 N refelctions;
#X floatatom 598 100 5 0 0 0 - - -, f 5;
#X text 597 41 content;
#X msg 395 197 S;
#X msg 416 218 M;
#X msg 437 243 L;
#X msg 496 196 d;
#X msg 517 218 m;
#X msg 538 242 w;
#X msg 702 197 ref;
#X obj 395 275 l2s;
#X obj 496 267 l2s;
#X obj 702 262 l2s;
#X obj 597 269 l2s;
#X obj 396 324 pack s s s s;
#X floatatom 777 227 5 0 0 0 - - -, f 5;
#X obj 395 125 t f f;
#X obj 422 149 s gainRoom;
#X obj 496 125 t f f;
#X obj 523 149 s gainRT;
#X floatatom 30 248 5 0 2 2 Room - -, f 5;
#X msg 51 137 0;
#X msg 86 137 1;
#X msg 117 138 6;
#X msg 22 137 100;
#X obj 30 204 t b b b f;
#X floatatom 112 245 5 0 2 2 RT - -, f 5;
#X floatatom 181 246 5 0 2 2 CONTENT - -, f 5;
#X obj 30 268 s lRoom;
#X obj 112 267 s lRT;
#X obj 182 266 s lContent;
#X obj 266 246 s lN;
#X obj 395 76 r lRoom;
#X obj 496 76 r lRT;
#X obj 598 76 r lContent;
#X obj 702 76 r lN;
#X text 468 12 Reive UDP and concat wav file name;
#X obj 376 404 cnv 15 246 317 empty empty empty 20 12 0 14 -233017
-66577 0;
#X obj 415 548 readsf~ 2, f 26;
#X obj 415 629 dac~ 1 2, f 10;
#X msg 396 503 start;
#X msg 450 524 stop;
#X obj 396 447 t b b a;
#X obj 450 502 r stop;
#X obj 500 501 print;
#X obj 415 600 *~ 1;
#X obj 476 600 *~ 1;
#X obj 429 572 r gain;
#X text 413 415 Play wav in loop;
#X text 649 416 Gain control;
#X obj 198 139 bng 15 250 50 0 empty empty empty 17 7 0 10 -262144
-1 -1;
#X obj 198 162 s stop;
#X obj 530 642 gate;
#X obj 258 138 tgl 15 0 empty empty empty 17 7 0 10 -262144 -1 -1 0
1;
#X text 191 115 stop;
#X text 256 116 loop;
#X obj 258 161 s lLoop;
#X obj 530 599 loadbang;
#X msg 530 620 0;
#X obj 517 577 r lLoop;
#X obj 530 664 bng 15 250 50 0 empty empty empty 17 7 0 10 -262144
-1 -1;
#X obj 530 684 s loop;
#X obj 429 277 r loop;
#X obj 702 172 route 100 101;
#X msg 739 206 refISM;
#X text 8 28 (100=reference \, 101=ISM first order);
#X msg 150 138 101;
#X text 20 116 Number of Reflections;
#X text 29 289 room:;
#X obj 395 174 route 0 1 2;
#X obj 496 173 route 0 1 2;
#X obj 597 175 route 0 1 2;
#X msg 597 198 speech;
#X msg 618 221 cast;
#X msg 639 243 noise;
#X text 29 301 0=small;
#X text 29 313 1=medium;
#X text 29 325 2=large;
#X text 109 313 1=medium;
#X text 109 289 RT;
#X text 109 301 0=dry;
#X text 109 325 2=wet;
#X text 181 289 Content;
#X text 181 301 0=speech;
#X text 181 313 1=castantes;
#X text 181 325 2=noise;
#X text 11 11 Klick on a 'Number of Reflections' to listen;
#X text 10 63 Select room \, RT \, and content with numbers below;
#X msg 396 347 set open Auralizations/\$1-\$2_\$3_\$4.wav;
#X msg 415 474 open Auralizations/\$1-\$2_\$3_\$4.wav;
#X text 870 99 enable audio, f 16;
#X connect 4 0 3 0;
#X connect 5 0 13 0;
#X connect 5 1 14 0;
#X connect 5 2 16 0;
#X connect 5 3 17 0;
#X connect 5 4 20 0;
#X connect 5 5 21 0;
#X connect 5 6 22 0;
#X connect 5 7 23 0;
#X connect 5 8 28 0;
#X connect 6 0 8 1;
#X connect 7 0 8 0;
#X connect 8 0 10 0;
#X connect 9 0 5 0;
#X connect 10 0 9 0;
#X connect 11 0 12 0;
#X connect 12 0 32 0;
#X connect 13 0 11 0;
#X connect 14 0 15 0;
#X connect 15 0 12 0;
#X connect 16 0 18 0;
#X connect 17 0 19 0;
#X connect 18 0 12 0;
#X connect 19 0 12 0;
#X connect 20 0 24 0;
#X connect 21 0 25 0;
#X connect 22 0 26 0;
#X connect 23 0 27 0;
#X connect 24 0 12 0;
#X connect 25 0 12 0;
#X connect 26 0 12 0;
#X connect 27 0 12 0;
#X connect 28 0 29 0;
#X connect 29 0 12 0;
#X connect 30 0 33 0;
#X connect 31 0 30 0;
#X connect 32 0 31 0;
#X connect 35 0 58 0;
#X connect 36 0 56 0;
#X connect 39 0 103 0;
#X connect 41 0 111 0;
#X connect 43 0 50 0;
#X connect 44 0 50 0;
#X connect 45 0 50 0;
#X connect 46 0 51 0;
#X connect 47 0 51 0;
#X connect 48 0 51 0;
#X connect 49 0 52 0;
#X connect 50 0 54 0;
#X connect 51 0 54 1;
#X connect 52 0 54 3;
#X connect 53 0 54 2;
#X connect 54 0 128 0;
#X connect 55 0 52 0;
#X connect 56 0 109 0;
#X connect 56 1 57 0;
#X connect 58 0 110 0;
#X connect 58 1 59 0;
#X connect 60 0 68 0;
#X connect 61 0 65 0;
#X connect 62 0 65 0;
#X connect 63 0 65 0;
#X connect 64 0 65 0;
#X connect 65 0 60 0;
#X connect 65 1 66 0;
#X connect 65 2 67 0;
#X connect 65 3 71 0;
#X connect 66 0 69 0;
#X connect 67 0 70 0;
#X connect 72 0 36 0;
#X connect 73 0 35 0;
#X connect 74 0 41 0;
#X connect 75 0 39 0;
#X connect 78 0 85 0;
#X connect 78 1 86 0;
#X connect 78 2 92 1;
#X connect 80 0 78 0;
#X connect 81 0 78 0;
#X connect 82 0 80 0;
#X connect 82 1 129 0;
#X connect 82 2 129 0;
#X connect 83 0 81 0;
#X connect 85 0 79 0;
#X connect 86 0 79 1;
#X connect 87 0 85 1;
#X connect 87 0 86 1;
#X connect 90 0 91 0;
#X connect 92 0 100 0;
#X connect 93 0 96 0;
#X connect 97 0 98 0;
#X connect 98 0 92 0;
#X connect 99 0 92 0;
#X connect 100 0 101 0;
#X connect 102 0 54 0;
#X connect 103 0 49 0;
#X connect 103 1 104 0;
#X connect 103 2 55 0;
#X connect 104 0 52 0;
#X connect 106 0 65 0;
#X connect 109 0 43 0;
#X connect 109 1 44 0;
#X connect 109 2 45 0;
#X connect 110 0 46 0;
#X connect 110 1 47 0;
#X connect 110 2 48 0;
#X connect 111 0 112 0;
#X connect 111 1 113 0;
#X connect 111 2 114 0;
#X connect 112 0 53 0;
#X connect 113 0 53 0;
#X connect 114 0 53 0;
#X connect 128 0 82 0;
#X connect 129 0 78 0;
#X connect 129 0 84 0;
